<svg width="179" height="27" viewBox="0 0 179 27" fill="none" xmlns="http://www.w3.org/2000/svg">
<path d="M51.1857 0.84668H54.6143V24.7372H48.2785L37.4291 2.33225H37.3422V24.7372H33.9136V0.84668H39.8149L51.0988 23.2516H51.1857V0.84668Z" fill="white"/>
<path d="M66.8961 25.1616C64.9869 25.1616 63.3881 24.7805 62.0996 24.0158C60.811 23.2512 59.8502 22.205 59.2122 20.8748C58.5766 19.5446 58.2563 18.0177 58.2563 16.2919C58.2563 14.566 58.5741 13.0319 59.2122 11.6871C59.8478 10.3447 60.811 9.2888 62.0996 8.52659C63.3856 7.76196 64.9845 7.38086 66.8961 7.38086C69.7016 7.38086 71.8442 8.19404 73.3189 9.8204C74.7936 11.4468 75.531 13.6047 75.531 16.2919C75.531 17.9619 75.2206 19.4669 74.5975 20.8117C73.9743 22.1565 73.0284 23.2172 71.7548 23.994C70.4811 24.7708 68.8624 25.1616 66.8937 25.1616H66.8961ZM66.8961 22.3604C68.3436 22.3604 69.4484 22.0497 70.2155 21.4258C70.9827 20.8044 71.5115 20.0252 71.7995 19.0931C72.0875 18.1585 72.2339 17.1973 72.2339 16.2069C72.2339 15.2165 72.0899 14.248 71.7995 13.3013C71.509 12.3546 70.9827 11.5681 70.2155 10.9467C69.4484 10.3253 68.3411 10.0122 66.8961 10.0122C65.4512 10.0122 64.3787 10.3229 63.5966 10.9467C62.8146 11.5681 62.2734 12.3546 61.968 13.3013C61.6651 14.2504 61.5136 15.2189 61.5136 16.2069C61.5136 17.1948 61.6651 18.1585 61.968 19.0931C62.2709 20.0276 62.8146 20.8044 63.5966 21.4258C64.3787 22.0472 65.4785 22.3604 66.8961 22.3604Z" fill="white"/>
<path d="M91.331 7.4248H94.6727V8.06078L88.163 24.737H83.431L76.9214 8.06078V7.4248H80.2209L85.8194 22.0232H85.9063L91.331 7.4248Z" fill="white"/>
<path d="M104.916 25.1618C102.948 25.1618 101.329 24.7298 100.055 23.868C98.7816 23.0063 97.8407 21.8873 97.2349 20.5158C96.6266 19.1443 96.3237 17.7218 96.3237 16.2508C96.3237 14.6099 96.6564 13.1098 97.3218 11.7529C97.9871 10.3959 98.9554 9.3206 100.229 8.52684C101.503 7.73551 103.034 7.33984 104.829 7.33984C106.364 7.33984 107.737 7.66512 108.953 8.31566C110.167 8.9662 111.138 9.89347 111.86 11.095C112.583 12.2966 112.973 13.7191 113.032 15.36V16.4208H99.5339C99.5339 18.2874 100.003 19.7512 100.944 20.8119C101.885 21.8727 103.193 22.4043 104.872 22.4043C106.145 22.4043 107.223 22.0863 108.104 21.4503C108.985 20.8144 109.529 19.9575 109.733 18.8821H112.988C112.844 20.0691 112.417 21.1445 111.707 22.1082C110.996 23.0694 110.07 23.8195 108.928 24.3559C107.784 24.8924 106.448 25.1618 104.914 25.1618H104.916ZM99.6654 14.7653H109.648C109.648 14.4254 109.569 13.9958 109.41 13.4715C109.251 12.9471 108.99 12.4253 108.628 11.9009C108.266 11.3766 107.774 10.9397 107.153 10.5853C106.53 10.2309 105.728 10.0537 104.745 10.0537C103.876 10.0537 103.124 10.2018 102.488 10.5003C101.85 10.7965 101.339 11.18 100.947 11.6461C100.557 12.1121 100.259 12.6219 100.058 13.1729C99.8541 13.7239 99.725 14.2555 99.6679 14.7653H99.6654Z" fill="white"/>
<path d="M116.548 24.737V7.4248H119.413L119.976 11.498H120.063C120.091 11.3863 120.215 11.1096 120.431 10.6702C120.647 10.2309 120.987 9.76482 121.451 9.26963C121.913 8.77444 122.536 8.34236 123.318 7.97583C124.1 7.60929 125.083 7.4248 126.27 7.4248C127.457 7.4248 128.534 7.60929 129.329 7.97583C130.123 8.34479 130.761 8.83998 131.238 9.4614C131.715 10.0828 132.062 10.7916 132.281 11.5829C132.499 12.3743 132.636 13.168 132.693 13.9594C132.75 14.7507 132.78 15.5153 132.78 16.2508V24.737H129.525V16.2071C129.525 15.076 129.401 14.071 129.157 13.1947C128.912 12.3184 128.47 11.6242 127.834 11.1145C127.196 10.6047 126.273 10.3498 125.056 10.3498C123.84 10.3498 122.777 10.6411 122.04 11.2188C121.302 11.799 120.773 12.5491 120.456 13.4666C120.138 14.3866 119.979 15.3964 119.979 16.5009V24.7322H116.55L116.548 24.737Z" fill="white"/>
<path d="M135.034 9.80141V7.42499C135.699 7.42499 136.24 7.38372 136.662 7.29876C137.082 7.2138 137.4 7.0366 137.618 6.76959C137.834 6.50015 137.981 6.06321 138.053 5.45394C138.125 4.84709 138.162 4.01934 138.162 2.9707H140.94V7.42741H145.064V9.80384H135.039L135.034 9.80141ZM141.111 24.7372C139.954 24.7372 139.108 24.4338 138.572 23.8245C138.035 23.2177 137.77 22.3317 137.77 21.1714V9.37419H140.938V22.1035H145.104V24.7348H141.111V24.7372Z" fill="white"/>
<path d="M156.259 25.1618C154.29 25.1618 152.671 24.7298 151.398 23.868C150.124 23.0063 149.183 21.8873 148.577 20.5158C147.969 19.1443 147.666 17.7218 147.666 16.2508C147.666 14.6099 147.999 13.1098 148.664 11.7529C149.329 10.3959 150.298 9.3206 151.571 8.52684C152.845 7.73551 154.377 7.33984 156.172 7.33984C157.706 7.33984 159.079 7.66512 160.295 8.31566C161.51 8.9662 162.48 9.89347 163.203 11.095C163.925 12.2966 164.315 13.7191 164.375 15.36V16.4208H150.876C150.876 18.2874 151.345 19.7512 152.286 20.8119C153.227 21.8727 154.536 22.4043 156.214 22.4043C157.488 22.4043 158.565 22.0863 159.446 21.4503C160.328 20.8144 160.871 19.9575 161.075 18.8821H164.33C164.186 20.0691 163.759 21.1445 163.049 22.1082C162.339 23.0694 161.413 23.8195 160.271 24.3559C159.126 24.8924 157.79 25.1618 156.256 25.1618H156.259ZM151.008 14.7653H160.991C160.991 14.4254 160.911 13.9958 160.752 13.4715C160.593 12.9471 160.333 12.4253 159.97 11.9009C159.608 11.3766 159.116 10.9397 158.496 10.5853C157.872 10.2309 157.07 10.0537 156.087 10.0537C155.218 10.0537 154.466 10.2018 153.831 10.5003C153.192 10.7965 152.681 11.18 152.289 11.6461C151.899 12.1121 151.601 12.6219 151.4 13.1729C151.196 13.7239 151.067 14.2555 151.01 14.7653H151.008Z" fill="white"/>
<path d="M168.235 24.737V7.4248H171.316L171.619 12.4325L171.574 16.1659V24.737H168.232H168.235ZM171.577 16.8868L171.448 13.0685C171.477 12.4471 171.629 11.8038 171.904 11.1387C172.18 10.4736 172.585 9.85949 173.118 9.2939C173.655 8.72832 174.347 8.2744 175.201 7.93699C176.055 7.59715 177.061 7.42723 178.218 7.42723H179V11.0756H178.218C176.887 11.0756 175.787 11.2018 174.918 11.4567C174.049 11.7116 173.377 12.0854 172.9 12.5806C172.423 13.0758 172.083 13.6851 171.88 14.406C171.676 15.127 171.577 15.9547 171.577 16.8892V16.8868Z" fill="white"/>
<path d="M24.6358 0.832599V12.79C24.6358 13.2488 24.256 13.6226 23.7842 13.6226H13.2924C12.8231 13.6226 12.4408 13.994 12.4408 14.4552V26.1698C12.4408 26.6286 12.0609 27.0024 11.5892 27.0024H0.851565C0.382335 27.0024 0 26.631 0 26.1698V14.2124C0 13.7537 0.379853 13.3798 0.851565 13.3798H11.3434C11.8127 13.3798 12.195 13.0084 12.195 12.5472V0.832599C12.195 0.37382 12.5749 0 13.0466 0H23.7867C24.256 0 24.6383 0.371393 24.6383 0.832599H24.6358Z" fill="#5A00DB"/>
<path d="M24.2582 16.2441H15.4298C15.2652 16.2441 15.1318 16.3746 15.1318 16.5354V25.1673C15.1318 25.3281 15.2652 25.4586 15.4298 25.4586H24.2582C24.4228 25.4586 24.5562 25.3281 24.5562 25.1673V16.5354C24.5562 16.3746 24.4228 16.2441 24.2582 16.2441Z" fill="#5A00DB"/>
</svg>
