<svg width="25" height="27" viewBox="0 0 25 27" fill="none" xmlns="http://www.w3.org/2000/svg">
<path d="M24.6358 0.832599V12.79C24.6358 13.2488 24.256 13.6226 23.7842 13.6226H13.2924C12.8231 13.6226 12.4408 13.994 12.4408 14.4552V26.1698C12.4408 26.6286 12.0609 27.0024 11.5892 27.0024H0.851565C0.382335 27.0024 0 26.631 0 26.1698V14.2124C0 13.7537 0.379853 13.3798 0.851565 13.3798H11.3434C11.8127 13.3798 12.195 13.0084 12.195 12.5472V0.832599C12.195 0.37382 12.5749 0 13.0466 0H23.7867C24.256 0 24.6383 0.371393 24.6383 0.832599H24.6358Z" fill="#5A00DB"/>
</svg>
