<svg width="202" height="145" viewBox="0 0 202 145" fill="none" xmlns="http://www.w3.org/2000/svg">
<g clip-path="url(#clip0_182_2456)">
<path d="M167.573 46.3642L138.394 17.1689C132.962 11.7096 126.501 7.38134 119.385 4.43441C112.269 1.48749 104.64 -0.01963 96.9381 0.000193033H59.125C48.0231 0.0134913 37.3798 4.42958 29.5296 12.2798C21.6794 20.13 17.2633 30.7733 17.25 41.8752V159.125C17.2633 170.227 21.6794 180.87 29.5296 188.721C37.3798 196.571 48.0231 200.987 59.125 201H142.875C153.977 200.987 164.62 196.571 172.47 188.721C180.321 180.87 184.737 170.227 184.75 159.125V87.8121C184.771 80.1106 183.263 72.4816 180.315 65.3669C177.366 58.2521 173.035 51.7932 167.573 46.3642ZM155.731 58.2064C158.288 60.8374 160.487 63.7942 162.271 67.0002H126.125C123.904 67.0002 121.774 66.1178 120.203 64.5472C118.632 62.9766 117.75 60.8464 117.75 58.6252V22.4787C120.957 24.2619 123.916 26.4582 126.552 29.0112L155.731 58.2064ZM168 159.125C168 165.789 165.353 172.179 160.641 176.891C155.929 181.603 149.539 184.25 142.875 184.25H59.125C52.4614 184.25 46.0708 181.603 41.3589 176.891C36.6471 172.179 34 165.789 34 159.125V41.8752C34 35.2116 36.6471 28.821 41.3589 24.1091C46.0708 19.3973 52.4614 16.7502 59.125 16.7502H96.9381C98.3116 16.7502 99.6432 17.0182 101 17.1438V58.6252C101 65.2888 103.647 71.6794 108.359 76.3913C113.071 81.1031 119.461 83.7502 126.125 83.7502H167.606C167.732 85.1069 168 86.4302 168 87.8121V159.125Z" fill="white" fill-opacity="0.1"/>
</g>
<defs>
<clipPath id="clip0_182_2456">
<rect width="201" height="201" fill="white" transform="translate(0.5)"/>
</clipPath>
</defs>
</svg>
