<svg width="69" height="68" viewBox="0 0 69 68" fill="none" xmlns="http://www.w3.org/2000/svg">
<g clip-path="url(#clip0_182_1523)">
<path d="M21.7498 32C25.6098 32 28.7498 28.86 28.7498 25C28.7498 21.14 25.6098 18 21.7498 18C17.8898 18 14.7498 21.14 14.7498 25C14.7498 28.86 17.8898 32 21.7498 32ZM21.7498 22C23.4038 22 24.7498 23.346 24.7498 25C24.7498 26.654 23.4038 28 21.7498 28C20.0958 28 18.7498 26.654 18.7498 25C18.7498 23.346 20.0958 22 21.7498 22ZM28.4118 38.628C27.7938 39.546 26.5538 39.792 25.6358 39.176C24.4858 38.404 23.1418 37.998 21.7498 37.998C18.1758 37.998 15.1858 40.672 14.7918 44.218C14.6778 45.24 13.8118 45.998 12.8058 45.998C12.7338 45.998 12.6598 45.994 12.5838 45.986C11.4858 45.864 10.6958 44.874 10.8158 43.778C11.4338 38.204 16.1338 33.998 21.7498 33.998C23.9378 33.998 26.0498 34.638 27.8638 35.852C28.7818 36.468 29.0278 37.71 28.4118 38.628ZM41.7498 24C45.6098 24 48.7498 20.86 48.7498 17C48.7498 13.14 45.6098 10 41.7498 10C37.8898 10 34.7498 13.14 34.7498 17C34.7498 20.86 37.8898 24 41.7498 24ZM41.7498 14C43.4038 14 44.7498 15.346 44.7498 17C44.7498 18.654 43.4038 20 41.7498 20C40.0958 20 38.7498 18.654 38.7498 17C38.7498 15.346 40.0958 14 41.7498 14ZM44.7498 30C37.0318 30 30.7498 36.282 30.7498 44C30.7498 51.718 37.0318 58 44.7498 58C52.4678 58 58.7498 51.718 58.7498 44C58.7498 36.282 52.4678 30 44.7498 30ZM44.7498 54C39.2358 54 34.7498 49.514 34.7498 44C34.7498 38.486 39.2358 34 44.7498 34C50.2638 34 54.7498 38.486 54.7498 44C54.7498 49.514 50.2638 54 44.7498 54ZM51.1938 41.576C51.9578 42.372 51.9318 43.638 51.1358 44.404L46.7098 48.652C45.8058 49.544 44.6058 49.994 43.4038 49.994C42.2018 49.994 40.9978 49.544 40.0778 48.646L37.8138 46.428C37.0238 45.654 37.0138 44.388 37.7858 43.6C38.5578 42.81 39.8238 42.798 40.6138 43.572L42.8758 45.788C43.1638 46.072 43.6338 46.066 43.9198 45.784L48.3658 41.516C49.1598 40.754 50.4278 40.776 51.1938 41.574V41.576Z" fill="white" fill-opacity="0.85"/>
</g>
<defs>
<clipPath id="clip0_182_1523">
<rect width="48" height="48" fill="white" transform="translate(10.75 10)"/>
</clipPath>
</defs>
</svg>
