<svg width="75" height="62" viewBox="0 0 75 62" fill="none" xmlns="http://www.w3.org/2000/svg">
<path d="M58.9163 0.166016H15.7497C7.23967 0.166016 0.333008 7.07268 0.333008 15.5827V46.416C0.333008 54.926 7.23967 61.8327 15.7497 61.8327H58.9163C67.4263 61.8327 74.333 54.926 74.333 46.416V15.5827C74.333 7.07268 67.4263 0.166016 58.9163 0.166016ZM15.7497 6.33268H58.9163C64.0038 6.33268 68.1663 10.4952 68.1663 15.5827H6.49967C6.49967 10.4952 10.6622 6.33268 15.7497 6.33268ZM58.9163 55.666H15.7497C10.6622 55.666 6.49967 51.5035 6.49967 46.416V21.7493H68.1663V46.416C68.1663 51.5035 64.0038 55.666 58.9163 55.666ZM31.1663 30.9994C31.1663 32.6952 29.7788 34.0827 28.083 34.0827H24.9997V46.416C24.9997 48.1119 23.6122 49.4994 21.9163 49.4994C20.2205 49.4994 18.833 48.1119 18.833 46.416V34.0827H15.7497C14.0538 34.0827 12.6663 32.6952 12.6663 30.9994C12.6663 29.3035 14.0538 27.916 15.7497 27.916H28.083C29.7788 27.916 31.1663 29.3035 31.1663 30.9994ZM61.9997 30.9994C61.9997 32.6952 60.6122 34.0827 58.9163 34.0827H40.4163C38.7205 34.0827 37.333 32.6952 37.333 30.9994C37.333 29.3035 38.7205 27.916 40.4163 27.916H58.9163C60.6122 27.916 61.9997 29.3035 61.9997 30.9994ZM61.9997 43.3327C61.9997 45.0285 60.6122 46.416 58.9163 46.416H40.4163C38.7205 46.416 37.333 45.0285 37.333 43.3327C37.333 41.6369 38.7205 40.2494 40.4163 40.2494H58.9163C60.6122 40.2494 61.9997 41.6369 61.9997 43.3327Z" fill="white"/>
</svg>
