<svg width="75" height="74" viewBox="0 0 75 74" fill="none" xmlns="http://www.w3.org/2000/svg">
<g clip-path="url(#clip0_182_2173)">
<path d="M22.4287 15.2995C25.0156 15.2995 27.3466 16.3663 29.0239 18.0776C24.9385 20.8526 22.2468 25.5362 22.2468 30.8364C22.2468 31.8477 22.3578 32.8313 22.5458 33.7902C22.5058 33.7902 22.4688 33.8026 22.4287 33.8026C17.3196 33.8026 13.1787 29.6617 13.1787 24.5526C13.1787 19.4435 17.3196 15.2995 22.4287 15.2995ZM53.0832 15.4167C50.4901 15.4167 48.1529 16.4928 46.4725 18.2102C50.4593 21.0006 53.0832 25.6071 53.0832 30.8333C53.0832 31.8786 52.9753 32.8992 52.7748 33.8858C52.8797 33.8889 52.9783 33.9167 53.0832 33.9167C58.1923 33.9167 62.3332 29.7757 62.3332 24.6667C62.3332 19.5576 58.1923 15.4167 53.0832 15.4167ZM37.6665 40.0833C42.7756 40.0833 46.9165 35.9424 46.9165 30.8333C46.9165 25.7242 42.7756 21.5833 37.6665 21.5833C32.5574 21.5833 28.4165 25.7242 28.4165 30.8333C28.4165 35.9424 32.5574 40.0833 37.6665 40.0833ZM37.6665 46.25C32.2583 46.25 27.3836 49.5276 25.5336 54.4085C24.9293 56.0026 25.7309 57.7817 27.325 58.386C28.9129 58.9873 30.6982 58.1887 31.3025 56.5946C32.2491 54.094 34.8083 52.4197 37.6696 52.4197C40.5309 52.4197 43.0901 54.0971 44.0367 56.5946C44.5023 57.8248 45.677 58.5864 46.9196 58.5864C47.2834 58.5864 47.6534 58.5217 48.0111 58.3891C49.6021 57.7847 50.4038 56.0057 49.8025 54.4116C47.9525 49.5337 43.0778 46.2531 37.6696 46.2531L37.6665 46.25ZM49.0748 40.6907C47.4499 41.2026 46.5465 42.9323 47.0583 44.5573C47.5702 46.1791 49.3061 47.0794 50.9248 46.5737C51.6124 46.3579 52.337 46.25 53.0832 46.25C55.9445 46.25 58.5037 47.9273 59.4503 50.4248C59.9158 51.6551 61.0906 52.4167 62.3332 52.4167C62.697 52.4167 63.067 52.3519 63.4247 52.2193C65.0157 51.615 65.8173 49.8359 65.2161 48.2418C63.3661 43.364 58.4913 40.0833 53.0832 40.0833C51.708 40.0833 50.3606 40.2868 49.0748 40.6907ZM22.2498 40.0833C16.8417 40.0833 11.9669 43.3609 10.1169 48.2418C9.51259 49.8359 10.3143 51.615 11.9083 52.2193C12.2691 52.355 12.636 52.4167 12.9998 52.4167C14.2424 52.4167 15.4172 51.6582 15.8828 50.4248C16.8293 47.9242 19.3885 46.25 22.2498 46.25C22.996 46.25 23.7237 46.3579 24.4082 46.5737C26.0269 47.0794 27.7628 46.1791 28.2747 44.5573C28.7865 42.9323 27.8831 41.2026 26.2582 40.6907C24.9724 40.2868 23.625 40.0833 22.2498 40.0833ZM22.2498 67.8333H16.0832C10.9833 67.8333 6.83317 63.6832 6.83317 58.5833V52.4167C6.83317 50.7116 5.45184 49.3333 3.74984 49.3333C2.04784 49.3333 0.666504 50.7116 0.666504 52.4167V58.5833C0.666504 67.0841 7.58242 74 16.0832 74H22.2498C23.9518 74 25.3332 72.6217 25.3332 70.9167C25.3332 69.2116 23.9518 67.8333 22.2498 67.8333ZM71.5832 49.3333C69.8812 49.3333 68.4998 50.7116 68.4998 52.4167V58.5833C68.4998 63.6832 64.3497 67.8333 59.2498 67.8333H53.0832C51.3812 67.8333 49.9998 69.2116 49.9998 70.9167C49.9998 72.6217 51.3812 74 53.0832 74H59.2498C67.7506 74 74.6665 67.0841 74.6665 58.5833V52.4167C74.6665 50.7116 73.2852 49.3333 71.5832 49.3333ZM59.2498 0H53.0832C51.3812 0 49.9998 1.37825 49.9998 3.08333C49.9998 4.78842 51.3812 6.16667 53.0832 6.16667H59.2498C64.3497 6.16667 68.4998 10.3168 68.4998 15.4167V21.5833C68.4998 23.2884 69.8812 24.6667 71.5832 24.6667C73.2852 24.6667 74.6665 23.2884 74.6665 21.5833V15.4167C74.6665 6.91592 67.7506 0 59.2498 0ZM3.74984 24.6667C5.45184 24.6667 6.83317 23.2884 6.83317 21.5833V15.4167C6.83317 10.3168 10.9833 6.16667 16.0832 6.16667H22.2498C23.9518 6.16667 25.3332 4.78842 25.3332 3.08333C25.3332 1.37825 23.9518 0 22.2498 0H16.0832C7.58242 0 0.666504 6.91592 0.666504 15.4167V21.5833C0.666504 23.2884 2.04784 24.6667 3.74984 24.6667Z" fill="white"/>
</g>
<defs>
<clipPath id="clip0_182_2173">
<rect width="74" height="74" fill="white" transform="translate(0.666504)"/>
</clipPath>
</defs>
</svg>
