<svg width="151" height="150" viewBox="0 0 151 150" fill="none" xmlns="http://www.w3.org/2000/svg">
<rect x="0.666504" width="150" height="150" rx="24" fill="white" fill-opacity="0.1"/>
<g clip-path="url(#clip0_182_2147)">
<path d="M100.176 55.0694L89.4334 44.3209C87.4333 42.311 85.0547 40.7175 82.4349 39.6326C79.8152 38.5476 77.0064 37.9928 74.1709 38.0001H60.2497C56.1624 38.005 52.244 39.6308 49.3539 42.5209C46.4637 45.411 44.8379 49.3295 44.833 53.4167V96.5834C44.8379 100.671 46.4637 104.589 49.3539 107.479C52.244 110.369 56.1624 111.995 60.2497 112H91.083C95.1703 111.995 99.0887 110.369 101.979 107.479C104.869 104.589 106.495 100.671 106.5 96.5834V70.3288C106.507 67.4935 105.952 64.6848 104.867 62.0654C103.781 59.4461 102.187 57.0681 100.176 55.0694ZM95.8159 59.4292C96.7575 60.3979 97.5671 61.4864 98.224 62.6667H84.9163C84.0986 62.6667 83.3143 62.3419 82.7361 61.7636C82.1579 61.1854 81.833 60.4012 81.833 59.5834V46.2757C83.0137 46.9323 84.1032 47.7408 85.0736 48.6807L95.8159 59.4292ZM100.333 96.5834C100.333 99.0367 99.3585 101.389 97.6237 103.124C95.889 104.859 93.5363 105.833 91.083 105.833H60.2497C57.7964 105.833 55.4436 104.859 53.7089 103.124C51.9742 101.389 50.9997 99.0367 50.9997 96.5834V53.4167C50.9997 50.9635 51.9742 48.6107 53.7089 46.876C55.4436 45.1413 57.7964 44.1667 60.2497 44.1667H74.1709C74.6766 44.1667 75.1668 44.2654 75.6663 44.3117V59.5834C75.6663 62.0367 76.6409 64.3894 78.3756 66.1241C80.1103 67.8589 82.4631 68.8334 84.9163 68.8334H100.188C100.234 69.3329 100.333 69.8201 100.333 70.3288V96.5834Z" fill="white"/>
</g>
<defs>
<clipPath id="clip0_182_2147">
<rect width="74" height="74" fill="white" transform="translate(38.6665 38)"/>
</clipPath>
</defs>
</svg>
