<svg width="75" height="74" viewBox="0 0 75 74" fill="none" xmlns="http://www.w3.org/2000/svg">
<g clip-path="url(#clip0_182_2195)">
<path d="M55.6917 43.8358L42.1466 38.0021C39.2575 36.7595 35.9429 36.7595 33.0569 38.0082L19.5982 43.8358C17.3689 44.8008 15.9845 46.9098 15.9814 49.3364C15.9783 51.763 17.3597 53.8751 19.5828 54.8463L25.3332 57.3562V65.3482C25.3332 68.3513 27.0907 71.1017 29.8163 72.3566C32.1874 73.4481 34.8268 74 37.6665 74C40.5063 74 43.1456 73.445 45.5228 72.3566C48.2423 71.1017 49.9998 68.3483 49.9998 65.3482V57.3315L53.0832 55.9933V64.7531C53.0832 66.4582 54.4614 67.8364 56.1665 67.8364C57.8716 67.8364 59.2498 66.4582 59.2498 64.7531C59.2498 64.7531 59.2498 49.4998 59.2498 49.3364C59.2498 46.9407 57.8901 44.7793 55.6917 43.8388V43.8358ZM35.5082 43.6693C36.8402 43.0896 38.3757 43.0896 39.7077 43.6631L53.1202 49.1422C53.1202 49.1853 53.0986 49.2192 53.0955 49.2624L39.7293 55.0683C38.3849 55.6511 36.8433 55.6511 35.4989 55.0622L22.0463 49.4967L35.5051 43.6693H35.5082ZM43.8332 65.3451C43.8332 65.9587 43.4909 66.5013 42.9421 66.7542C39.8279 68.1817 35.502 68.1817 32.394 66.7542C31.8421 66.5013 31.4998 65.9587 31.4998 65.3451V60.0448L33.0353 60.7139C34.4938 61.3491 36.057 61.6667 37.6233 61.6667C39.1804 61.6667 40.7375 61.3522 42.1898 60.7201L43.8332 60.0047V65.3451ZM22.2498 13.875C22.2498 16.428 20.1778 18.5 17.6248 18.5C15.0718 18.5 12.9998 16.428 12.9998 13.875C12.9998 11.322 15.0718 9.25 17.6248 9.25C20.1778 9.25 22.2498 11.322 22.2498 13.875ZM34.5832 13.875C34.5832 16.428 32.5112 18.5 29.9582 18.5C27.4052 18.5 25.3332 16.428 25.3332 13.875C25.3332 11.322 27.4052 9.25 29.9582 9.25C32.5112 9.25 34.5832 11.322 34.5832 13.875ZM59.2498 0H16.0832C7.58242 0 0.666504 6.91592 0.666504 15.4167V52.4167C0.666504 60.9174 7.58242 67.8333 16.0832 67.8333C17.7852 67.8333 19.1665 66.4551 19.1665 64.75C19.1665 63.0449 17.7852 61.6667 16.0832 61.6667C10.9833 61.6667 6.83317 57.5165 6.83317 52.4167V27.75H68.4998V52.4167C68.4998 54.6706 67.6797 56.8443 66.1904 58.5309C65.065 59.8074 65.1852 61.7561 66.4648 62.8815C67.7352 64.0069 69.6869 63.8897 70.8154 62.6071C73.3006 59.7951 74.6665 56.1722 74.6665 52.4136V15.4167C74.6665 6.91592 67.7506 0 59.2498 0ZM6.83317 21.5833V15.4167C6.83317 10.3168 10.9833 6.16667 16.0832 6.16667H59.2498C64.3497 6.16667 68.4998 10.3168 68.4998 15.4167V21.5833H6.83317Z" fill="white"/>
</g>
<defs>
<clipPath id="clip0_182_2195">
<rect width="74" height="74" fill="white" transform="translate(0.666504)"/>
</clipPath>
</defs>
</svg>
