<svg width="354" height="383" viewBox="0 0 354 383" fill="none" xmlns="http://www.w3.org/2000/svg">
<path d="M352.846 11.4145H352.818V11.8258V181.382C352.818 187.649 347.573 192.777 341.031 192.777H190.745C183.81 192.777 178.136 198.214 178.136 204.995V371.109C178.136 377.376 172.891 382.504 166.349 382.504H12.5417C6.03398 382.504 0.75508 377.409 0.75508 371.109V201.553C0.75508 195.286 6.00001 190.158 12.5417 190.158H162.828C169.763 190.158 175.438 184.721 175.438 177.94V11.8258C175.438 5.55927 180.682 0.430861 187.224 0.430861H341.067C347.432 0.430861 352.622 5.30606 352.846 11.4145Z" fill="white" fill-opacity="0.45" stroke="white" stroke-width="0.82266"/>
</svg>
